<mxfile host="app.diagrams.net" modified="2022-07-15T14:37:04.537Z" agent="5.0 (Windows NT 10.0; Win64; x64) AppleWebKit/537.36 (KHTML, like Gecko) Chrome/103.0.0.0 Safari/537.36" etag="vGNKqgCodEq1KhDLS3OA" version="20.1.1" type="github">
  <diagram id="s5JIiTjBB1H4Dnf0qd4V" name="Page-1">
    <mxGraphModel dx="1401" dy="530" grid="1" gridSize="10" guides="1" tooltips="1" connect="1" arrows="1" fold="1" page="1" pageScale="1" pageWidth="827" pageHeight="1169" math="0" shadow="0">
      <root>
        <mxCell id="0" />
        <mxCell id="1" parent="0" />
        <mxCell id="VnhYgMw3IpfDqGRZdZ80-33" style="edgeStyle=orthogonalEdgeStyle;rounded=0;orthogonalLoop=1;jettySize=auto;html=1;exitX=1;exitY=0;exitDx=0;exitDy=0;entryX=0;entryY=0;entryDx=0;entryDy=0;" edge="1" parent="1" source="VnhYgMw3IpfDqGRZdZ80-18" target="VnhYgMw3IpfDqGRZdZ80-22">
          <mxGeometry relative="1" as="geometry" />
        </mxCell>
        <mxCell id="VnhYgMw3IpfDqGRZdZ80-18" value="QNAP Krosnowice" style="swimlane;fontStyle=0;childLayout=stackLayout;horizontal=1;startSize=30;horizontalStack=0;resizeParent=1;resizeParentMax=0;resizeLast=0;collapsible=1;marginBottom=0;" vertex="1" parent="1">
          <mxGeometry x="40" y="80" width="140" height="120" as="geometry" />
        </mxCell>
        <mxCell id="VnhYgMw3IpfDqGRZdZ80-19" value="Maszyna Wirtualna" style="text;strokeColor=none;fillColor=none;align=left;verticalAlign=middle;spacingLeft=4;spacingRight=4;overflow=hidden;points=[[0,0.5],[1,0.5]];portConstraint=eastwest;rotatable=0;" vertex="1" parent="VnhYgMw3IpfDqGRZdZ80-18">
          <mxGeometry y="30" width="140" height="30" as="geometry" />
        </mxCell>
        <mxCell id="VnhYgMw3IpfDqGRZdZ80-20" value="Baza danych" style="text;strokeColor=none;fillColor=none;align=left;verticalAlign=middle;spacingLeft=4;spacingRight=4;overflow=hidden;points=[[0,0.5],[1,0.5]];portConstraint=eastwest;rotatable=0;" vertex="1" parent="VnhYgMw3IpfDqGRZdZ80-18">
          <mxGeometry y="60" width="140" height="30" as="geometry" />
        </mxCell>
        <mxCell id="VnhYgMw3IpfDqGRZdZ80-21" value="Migawki (Qnapa i &#xa;maszyny wirtualnej)" style="text;strokeColor=none;fillColor=none;align=left;verticalAlign=middle;spacingLeft=4;spacingRight=4;overflow=hidden;points=[[0,0.5],[1,0.5]];portConstraint=eastwest;rotatable=0;" vertex="1" parent="VnhYgMw3IpfDqGRZdZ80-18">
          <mxGeometry y="90" width="140" height="30" as="geometry" />
        </mxCell>
        <mxCell id="VnhYgMw3IpfDqGRZdZ80-35" style="edgeStyle=orthogonalEdgeStyle;rounded=0;orthogonalLoop=1;jettySize=auto;html=1;exitX=0;exitY=1;exitDx=0;exitDy=0;entryX=1;entryY=1;entryDx=0;entryDy=0;" edge="1" parent="1" source="VnhYgMw3IpfDqGRZdZ80-22" target="VnhYgMw3IpfDqGRZdZ80-18">
          <mxGeometry relative="1" as="geometry" />
        </mxCell>
        <mxCell id="VnhYgMw3IpfDqGRZdZ80-22" value="QNAP Czerwonak" style="swimlane;fontStyle=0;childLayout=stackLayout;horizontal=1;startSize=30;horizontalStack=0;resizeParent=1;resizeParentMax=0;resizeLast=0;collapsible=1;marginBottom=0;" vertex="1" parent="1">
          <mxGeometry x="343" y="80" width="140" height="120" as="geometry">
            <mxRectangle x="343" y="80" width="140" height="30" as="alternateBounds" />
          </mxGeometry>
        </mxCell>
        <mxCell id="VnhYgMw3IpfDqGRZdZ80-23" value="Baza danych" style="text;strokeColor=none;fillColor=none;align=left;verticalAlign=middle;spacingLeft=4;spacingRight=4;overflow=hidden;points=[[0,0.5],[1,0.5]];portConstraint=eastwest;rotatable=0;" vertex="1" parent="VnhYgMw3IpfDqGRZdZ80-22">
          <mxGeometry y="30" width="140" height="30" as="geometry" />
        </mxCell>
        <mxCell id="VnhYgMw3IpfDqGRZdZ80-24" value="Strona WWW" style="text;strokeColor=none;fillColor=none;align=left;verticalAlign=middle;spacingLeft=4;spacingRight=4;overflow=hidden;points=[[0,0.5],[1,0.5]];portConstraint=eastwest;rotatable=0;" vertex="1" parent="VnhYgMw3IpfDqGRZdZ80-22">
          <mxGeometry y="60" width="140" height="30" as="geometry" />
        </mxCell>
        <mxCell id="VnhYgMw3IpfDqGRZdZ80-32" style="text;strokeColor=none;fillColor=none;align=left;verticalAlign=middle;spacingLeft=4;spacingRight=4;overflow=hidden;points=[[0,0.5],[1,0.5]];portConstraint=eastwest;rotatable=0;" vertex="1" parent="VnhYgMw3IpfDqGRZdZ80-22">
          <mxGeometry y="90" width="140" height="30" as="geometry" />
        </mxCell>
        <mxCell id="VnhYgMw3IpfDqGRZdZ80-34" style="edgeStyle=orthogonalEdgeStyle;rounded=0;orthogonalLoop=1;jettySize=auto;html=1;exitX=0;exitY=0;exitDx=0;exitDy=0;entryX=1;entryY=0;entryDx=0;entryDy=0;" edge="1" parent="1" source="VnhYgMw3IpfDqGRZdZ80-26" target="VnhYgMw3IpfDqGRZdZ80-22">
          <mxGeometry relative="1" as="geometry" />
        </mxCell>
        <mxCell id="VnhYgMw3IpfDqGRZdZ80-26" value="QNAP Grochowe" style="swimlane;fontStyle=0;childLayout=stackLayout;horizontal=1;startSize=30;horizontalStack=0;resizeParent=1;resizeParentMax=0;resizeLast=0;collapsible=1;marginBottom=0;" vertex="1" parent="1">
          <mxGeometry x="660" y="80" width="140" height="90" as="geometry" />
        </mxCell>
        <mxCell id="VnhYgMw3IpfDqGRZdZ80-27" value="Maszyna wirtualna" style="text;strokeColor=none;fillColor=none;align=left;verticalAlign=middle;spacingLeft=4;spacingRight=4;overflow=hidden;points=[[0,0.5],[1,0.5]];portConstraint=eastwest;rotatable=0;" vertex="1" parent="VnhYgMw3IpfDqGRZdZ80-26">
          <mxGeometry y="30" width="140" height="30" as="geometry" />
        </mxCell>
        <mxCell id="VnhYgMw3IpfDqGRZdZ80-29" value="Kopie serwera i &#xa;komputerów biurowych" style="text;strokeColor=none;fillColor=none;align=left;verticalAlign=middle;spacingLeft=4;spacingRight=4;overflow=hidden;points=[[0,0.5],[1,0.5]];portConstraint=eastwest;rotatable=0;" vertex="1" parent="VnhYgMw3IpfDqGRZdZ80-26">
          <mxGeometry y="60" width="140" height="30" as="geometry" />
        </mxCell>
        <mxCell id="VnhYgMw3IpfDqGRZdZ80-31" value="Kopie komputerów " style="text;strokeColor=none;fillColor=none;align=left;verticalAlign=middle;spacingLeft=4;spacingRight=4;overflow=hidden;points=[[0,0.5],[1,0.5]];portConstraint=eastwest;rotatable=0;" vertex="1" parent="1">
          <mxGeometry x="343" y="170" width="140" height="30" as="geometry" />
        </mxCell>
      </root>
    </mxGraphModel>
  </diagram>
</mxfile>
